<?xml version="1.0" standalone="no"?><!DOCTYPE svg PUBLIC "-//W3C//DTD SVG 1.1//EN" "http://www.w3.org/Graphics/SVG/1.1/DTD/svg11.dtd"><svg class="icon" width="200px" height="200.00px" viewBox="0 0 1024 1024" version="1.1" xmlns="http://www.w3.org/2000/svg"><path fill="#e6e6e6" d="M511.991101 1024C229.689396 1024 0 794.399597 0 511.991101S229.600403 0 511.991101 0s511.991101 229.600403 511.991101 511.991101-229.689396 512.008899-511.991101 512.008899z m0-1004.065701c-271.320042 0-492.056802 220.701163-492.056802 492.056802s220.701163 492.074601 492.056802 492.0746 492.074601-220.701163 492.0746-492.0746S783.311143 19.934299 511.991101 19.934299zM241.365199 169.601724l-8.489875 6.638834a14.719344 14.719344 0 0 0-10.002747-3.702084 17.798481 17.798481 0 0 0-10.679088 4.164844 18.652808 18.652808 0 0 0-7.973719 14.487964q-0.266977 8.454278 6.994803 17.79848t15.520275 10.999462a18.225644 18.225644 0 0 0 15.822849-3.933465 17.602698 17.602698 0 0 0 7.119393-11.924982 19.008778 19.008778 0 0 0-4.022457-13.740427l-14.078598 10.999461-5.535328-7.119392 21.963325-17.175534 21.696349 27.76563-5.659917 4.431822-6.514244-5.339545a23.90336 23.90336 0 0 1-2.367198 11.302036 26.377349 26.377349 0 0 1-7.671145 9.201814 27.89022 27.89022 0 0 1-23.138026 6.033685q-12.458937-2.278206-21.90993-14.398971t-8.756852-24.917873q0.907723-12.583526 12.049571-21.358177 9.290807-7.26178 18.652808-7.315176a23.31601 23.31601 0 0 1 16.979751 7.101594zM249.659291 140.572402l9.344203-5.553126 28.335181 47.628735 27.712235-16.481394 5.054768 8.489876-37.038638 22.034519zM325.107052 98.550189q13.313264-5.837902 24.686493-0.783134t17.79848 19.702919q6.44305 14.665948 2.473989 26.448542t-17.300123 17.638295q-13.366659 5.873499-24.72209 0.836528t-17.798481-19.738515q-6.460849-14.683747-2.473989-26.466341t17.335721-17.638294z m3.791076 8.650061a18.15445 18.15445 0 0 0-10.999461 12.013975q-2.260407 8.187301 2.473989 18.990979t12.29875 14.64815a20.041089 20.041089 0 0 0 27.338467-11.978378q2.260407-8.2051-2.473989-18.955382t-12.263154-14.683747a18.101055 18.101055 0 0 0-16.356803-0.035597zM376.526863 80.25335L403.829733 72.99157q9.895955-2.634175 15.876244 0t8.098309 10.679089a15.075313 15.075313 0 0 1 0 8.561069 13.313264 13.313264 0 0 1-4.841187 6.745624 15.253298 15.253298 0 0 1 9.700173 3.257122 17.211131 17.211131 0 0 1 5.446335 9.201815 17.567101 17.567101 0 0 1-2.260407 15.199902q-4.556411 6.621035-14.77274 9.326404l-27.64104 7.368571z m12.601324 6.069282l4.485217 16.87296 14.897329-3.969061q5.926894-1.584065 8.062712-4.44962a8.311891 8.311891 0 0 0 0.943319-7.457564 7.243982 7.243982 0 0 0-4.325031-5.339544 14.541359 14.541359 0 0 0-8.774651 0.195783z m6.763423 25.434029l5.214955 19.578329 16.481393-4.396224a14.576956 14.576956 0 0 0 8.454279-4.876784 9.379799 9.379799 0 0 0 1.032312-8.276294 8.89924 8.89924 0 0 0-4.983575-6.496445q-3.666487-1.530669-10.305321 0.249178zM465.430275 61.404759l12.174161-1.281491 30.702379 62.472668-11.551214 1.210297-7.599951-16.178819-25.273843 2.669772-3.915666 17.406914-11.284237 1.192498z m7.119392 10.30532l-6.692229 29.189509 19.311352-2.046825zM520.1962 57.898458l10.857074 0.462761-2.367198 55.335477 32.197452 1.40608-0.427164 9.878157-43.054525-1.868841zM607.123981 66.085759l13.046286 3.435107 7.866929 32.784802 22.479481-24.793284 12.138564 3.203727-31.75249 32.482227-6.585437 24.917874-10.5545-2.776563 6.460849-24.472912zM677.534771 86.767594l10.19853 3.844472-23.138025 61.084386-10.19853-3.86227zM710.088193 99.315523l22.532877 11.337633q12.850503 6.460849 15.609267 16.961952t-4.503015 24.917873q-7.119392 14.131994-17.994264 18.190048t-24.099144-2.598579l-20.913215-10.5367z m5.339544 13.081884l-20.806424 41.47046 11.924982 5.998088q8.66786 4.360628 15.377888 1.245894t12.191959-14.007405q4.983575-9.895955 3.452905-17.122138t-9.48659-11.230842zM790.875498 144.327881l10.162932 6.816819-16.445796 67.634227-9.646777-6.478647 4.556411-17.282325-21.108998-14.238785-14.238785 10.839275-9.433195-6.318461z m-1.085708 12.458937l-23.832166 18.118854 16.125424 10.821476zM201.603393 771.475153l21.55396 29.011524-6.229468 4.645404-16.392401-22.052318-11.391028 8.454278 14.238785 19.346949-6.158274 4.57421-14.381173-19.346949-18.617211 13.918412-5.179358-6.959206zM228.550293 806.66275l16.018633 16.267812c0.480559 0.498357 0.996715 1.05011 1.566266 1.690855l0.302574 0.35597a14.968522 14.968522 0 0 1 4.930179 10.590096 16.392401 16.392401 0 0 1-11.764796 14.398971 11.141849 11.141849 0 0 1-7.208384-0.765335 8.258495 8.258495 0 0 1 0.925521 5.62432 15.894043 15.894043 0 0 1-4.040255 6.33626l-5.072567 5.659916c-2.242609 2.420593-3.16813 4.360628-2.758765 5.802305l-1.103506 1.085708-6.923609-7.012602a8.89924 8.89924 0 0 1 1.139103-2.367198 31.414319 31.414319 0 0 1 2.901152-3.559696l4.307233-4.645404q3.435107-3.773278 3.328316-6.282863a9.237412 9.237412 0 0 0-3.203727-5.659917l-1.192498-1.210297-8.169503-8.294092-15.520275 15.288895-6.140476-6.229468z m0.783133 11.408826l-11.604609 11.426625 8.89924 8.988233a12.743712 12.743712 0 0 0 6.959206 4.307232 7.635548 7.635548 0 0 0 6.176073-2.68757 7.457563 7.457563 0 0 0 2.723167-5.998088 12.458937 12.458937 0 0 0-4.111449-6.888013zM265.37535 842.686875l30.132828 23.138025-4.734396 6.087081-23.31601-17.798481-8.418681 10.981663 21.464968 16.463595-4.503016 5.873498-21.464968-16.463595-9.735769 12.708116 24.081345 18.492621-4.841187 6.318461-30.915962-23.760972zM305.350738 871.662802l7.528757 4.663202-27.908018 45.047955-7.528757-4.663202zM358.230025 917.636278l-7.902526-3.737681a11.924982 11.924982 0 0 0-0.978916-8.596666 14.381173 14.381173 0 0 0-6.888013-6.176073 15.164306 15.164306 0 0 0-13.402256-0.516156q-6.229468 2.883354-10.30532 11.533416t-2.313803 15.253298a14.808336 14.808336 0 0 0 8.614465 10.056142 14.327777 14.327777 0 0 0 11.266439 0.854327 15.377887 15.377887 0 0 0 8.489875-7.920324l-13.099682-6.193872 3.114734-6.603236 20.397059 9.717971-12.209758 25.843394-5.339544-2.491788 1.530669-6.67443a19.400344 19.400344 0 0 1-9.059426 2.402795 21.358177 21.358177 0 0 1-9.468792-2.207012 22.621869 22.621869 0 0 1-12.797108-14.541358q-2.883354-9.84256 2.438392-21.144596t14.897328-15.431283a23.511793 23.511793 0 0 1 19.827508 0.978917 24.704291 24.704291 0 0 1 12.102967 10.857073 18.86639 18.86639 0 0 1 1.085708 14.737142zM376.028505 906.992787l8.454279 2.509586-5.909096 20.005492 24.045748 7.119392 5.909095-20.005492 8.454279 2.491787-15.021918 50.814663-8.454278-2.509586 6.870213-23.244816-24.045747-7.119392-6.870214 23.244816-8.454278-2.509586zM424.262389 920.644222l40.936506 6.549841-1.228096 7.671145-16.018632-2.562981-7.119393 44.656388-8.66786-1.388281 7.119392-44.656389-16.16102-2.58078zM519.608851 929.418873l8.792449-0.427164 2.22481 44.905567 26.110372-1.299289 0.391566 8.009317-34.920619 1.779848zM581.618758 922.228286q11.640206-1.940034 19.578329 4.289434t10.091739 19.044375q2.135818 12.814906-3.328316 21.358177t-17.10434 10.42991q-11.675803 1.957833-19.578329-4.271636t-10.145135-19.115568q-2.135818-12.850503 3.328316-21.358177t17.157736-10.376515z m1.263692 7.564355a14.719344 14.719344 0 0 0-11.035058 7.26178q-3.39951 5.98029-1.779848 15.431283t6.745624 13.971807a16.267812 16.267812 0 0 0 23.814368-3.986859q3.39951-5.998088 1.779848-15.413485t-6.745625-13.989606a14.683747 14.683747 0 0 0-12.779309-3.292719zM664.791059 918.348218l-8.311891 2.68757a11.960579 11.960579 0 0 0-6.585437-5.62432 14.541359 14.541359 0 0 0-9.25521 0.195783 15.182104 15.182104 0 0 0-10.091739 8.810249q-2.562981 6.354058 0.373768 15.466879t8.739054 12.725914a14.826135 14.826135 0 0 0 13.153077 1.423879 14.238785 14.238785 0 0 0 8.899241-7.119393 15.377887 15.377887 0 0 0 0.783133-11.586811l-13.793823 4.449621-2.242608-6.959207 21.536162-6.923609 8.756852 27.213878-5.553126 1.779848-3.452905-5.909096a19.382546 19.382546 0 0 1-4.965776 7.938123 21.358177 21.358177 0 0 1-8.400883 4.858985 22.675265 22.675265 0 0 1-19.293554-1.779848q-8.89924-5.214955-12.654719-17.10434t0.302574-21.44717a23.511793 23.511793 0 0 1 15.128708-12.850503 24.739888 24.739888 0 0 1 16.250014-0.35597 18.919785 18.919785 0 0 1 10.679088 10.109538zM671.625676 897.417204l8.098308-3.559696 21.251387 48.536457-8.098309 3.559696zM732.763457 883.836963l-7.315175 4.093651a9.468792 9.468792 0 0 0-6.371856-4.556411 12.708115 12.708115 0 0 0-8.525473 1.779848 11.533416 11.533416 0 0 0-5.214955 5.143761 6.104879 6.104879 0 0 0 4.503016 8.89924q3.025742 0.516156 10.679089-1.441677 11.675803-3.025742 16.463594-1.779848a12.743712 12.743712 0 0 1 7.777937 6.727826 14.754941 14.754941 0 0 1 0.872125 13.24207 22.977839 22.977839 0 0 1-10.928267 11.177446q-8.650062 4.734396-15.733857 3.221525a18.225644 18.225644 0 0 1-11.729199-9.166218l7.510959-4.111449a10.679089 10.679089 0 0 0 7.226183 5.143761 14.630351 14.630351 0 0 0 9.700172-2.082422 11.924982 11.924982 0 0 0 5.464134-5.499731 6.532042 6.532042 0 0 0 0-6.122677 6.638833 6.638833 0 0 0-2.082422-2.11802 9.557784 9.557784 0 0 0-3.132533-1.423878q-2.758765-0.658544-9.895955 1.245894l-2.331601 0.622946q-8.89924 2.22481-13.882816 0.800932a13.153077 13.153077 0 0 1-7.938122-6.870214 12.992891 12.992891 0 0 1-0.462761-12.031773 22.817652 22.817652 0 0 1 10.536701-10.518902 20.183477 20.183477 0 0 1 14.238785-2.651973 15.751656 15.751656 0 0 1 10.572297 8.276293zM731.21499 866.697026l33.923904-23.743173 4.467419 6.371856-13.313264 9.308605 25.914588 37.038639-7.119392 5.03697-25.932387-37.038639-13.402256 9.397598zM771.777728 837.133749l6.834616-5.606521 33.567935 40.936506-6.852415 5.606521zM832.862114 803.797195l-6.247267 6.051483a10.928267 10.928267 0 0 0-8.2051-2.384996 14.826135 14.826135 0 0 0-8.436479 4.503015 14.238785 14.238785 0 0 0-4.858986 11.871587q0.605148 6.585438 7.119393 13.331062t13.384457 7.760138a15.075313 15.075313 0 0 0 16.588184-13.313264 13.099682 13.099682 0 0 0-3.292719-9.450993l6.193872-6.015887a19.952097 19.952097 0 0 1 5.446335 15.2355 23.298211 23.298211 0 0 1-7.582153 15.360089q-8.133906 7.884727-18.012063 7.119392t-18.937583-10.145134q-9.166218-9.450993-9.557784-19.346948t8.098308-18.118854a23.529592 23.529592 0 0 1 14.398971-7.297377 18.225644 18.225644 0 0 1 13.900614 4.841187zM864.77479 763.66162l-5.339544 6.514244a9.450993 9.450993 0 0 0-7.61775-1.779848 12.636921 12.636921 0 0 0-7.226183 4.841187 11.551214 11.551214 0 0 0-2.883354 6.727826 6.104879 6.104879 0 0 0 7.582153 6.514244q3.007943-0.658544 9.397598-5.339544 9.664575-7.226183 14.594754-7.813534a12.725914 12.725914 0 0 1 9.735769 3.310518 14.737142 14.737142 0 0 1 5.802305 11.924982 22.942242 22.942242 0 0 1-5.909096 14.452366q-6.21167 7.653347-13.366659 8.899241t-14.238785-4.058054l5.339545-6.638833a10.679089 10.679089 0 0 0 8.632263 2.046825 14.701545 14.701545 0 0 0 8.205099-5.588723 11.960579 11.960579 0 0 0 2.990145-7.119392 6.549841 6.549841 0 0 0-2.367198-5.642119 6.371856 6.371856 0 0 0-2.723167-1.174699 9.557784 9.557784 0 0 0-3.435107-0.142388q-2.794361 0.427164-8.703457 4.876784c-0.854327 0.640745-1.495072 1.121304-1.922236 1.459475q-7.421967 5.339544-12.458937 5.98029a13.188674 13.188674 0 0 1-9.949351-3.363913 12.992891 12.992891 0 0 1-4.965776-10.981663 22.764257 22.764257 0 0 1 5.802305-13.70483 20.165679 20.165679 0 0 1 12.263153-7.84913 15.733857 15.733857 0 0 1 12.761511 3.648688zM83.385883 512.008899m-19.702918 0a19.702918 19.702918 0 1 0 39.405836 0 19.702918 19.702918 0 1 0-39.405836 0ZM951.150818 512.008899m-19.702919 0a19.702918 19.702918 0 1 0 39.405837 0 19.702918 19.702918 0 1 0-39.405837 0ZM367.414041 179.355292s159.830358-29.52768 205.412267 14.826134c43.837658 42.716354-116.847027 34.56465-32.44663 179.2663 0 0 9.931552-36.219909 65.231432-48.055899s87.123564-66.708706 88.209271-86.518415c0 0 25.469626 56.029618 76.230894 58.841778a74.75362 74.75362 0 0 1 55.940625 30.257417s-24.472911-49.835746-85.966662-98.443398c-77.44119-61.191177-211.784124-115.013783-372.611197-50.173917zM823.001756 566.792623c-1.779848-8.365286-28.370779 2.367198-66.779901 36.753863a16.374602 16.374602 0 0 1-2.153616 1.566267c-7.119392 6.816818-30.257417 25.54082-71.94146 32.037265-13.598039 2.100221-24.099143 13.046286-37.376809 26.875706-9.735769 10.127336-20.646238 21.358177-34.68924 30.880365-8.614465 21.002207-43.392696 86.482819-146.784071 101.860706-75.981715 11.302035-136.158379-14.238785-136.158379-14.238785l-20.664036 3.310517c-1.477274 0.35597-2.883354 0.711939-4.431822 1.050111a224.545635 224.545635 0 0 1-23.31601 3.702084l14.790538 11.853788c81.000886 66.673109 271.106461 122.613735 424.547164 10.180731 125.959849-92.267325 113.465316-207.530287 104.957642-245.832618zM663.616359 541.750161c-60.710618 35.685954-68.132585 45.492917-127.401526 49.479777-88.600838 6.015887-225.008395-61.547147-203.401039-219.295083 23.938957-174.727687 179.60447-181.544505 179.60447-181.544505-174.247128-28.477569-313.253263 69.271688-352.409921 234.388194-18.15445 76.39108-10.518902 161.396625 24.917873 229.796187a133.737785 133.737785 0 0 0 19.68512 2.384996c13.847218 0.409365 24.027949-3.559696 35.810544-8.009316 20.96661-8.027115 44.745381-17.122139 94.029374-2.918951 3.150331 0.907723 21.55396 6.834617 20.628439 9.984948-0.640745 2.189213-10.340917 2.473989-17.317921 2.135818a40.082179 40.082179 0 0 1-6.621035-0.694141c-45.45732-13.11748-66.299341-5.108164-86.46502 2.598578-11.907184 4.57421-24.188136 9.273009-40.438149 8.79245-21.660751-0.658544-46.115864-8.276294-62.294683-13.313264-5.446335-1.779848-10.162933-3.16813-13.348861-3.933464-8.507674-2.029027-11.907184-1.032312-12.565727-0.106791-2.420593 3.381711-1.210297 17.549302 34.279874 74.468844 40.366955 64.733075 117.754749 56.047416 149.169068 49.301792 22.746459-4.876784 36.059722-11.533416 51.455408-19.22236 2.81216-1.423878 5.695514-2.847757 8.703457-4.307232 12.209758-5.926894 33.817114-10.162933 41.826431-11.622408l3.185928-0.551753c3.257122-0.516156 26.537535-4.538613 26.35955-1.263692-0.444962 7.938122-21.215789 12.458937-24.455113 13.01069-0.284776 0-28.370779 4.627605-41.701841 11.12405-2.954548 1.423878-5.784506 2.865555-8.578867 4.253837-7.119392 3.559696-14.007404 6.977005-21.714147 10.162933a270.910677 270.910677 0 0 0 40.099977 7.617749c124.268993 14.238785 184.392262-34.546851 212.674048-77.601376a126.582796 126.582796 0 0 1-37.892965 8.418681 7.119392 7.119392 0 0 1-1.121305 0 8.685659 8.685659 0 0 1-0.142388-17.33572c42.716354-3.114734 64.679679-25.914588 84.026629-46.062469 14.327777-14.915127 27.872421-28.993725 47.272765-32.037265 43.730868-6.781221 63.914345-28.673353 64.074531-28.904733a8.418681 8.418681 0 0 1 1.779848-1.495072c40.936506-41.684042 68.363965-40.117776 68.363965-40.117776 22.621869 1.370483-40.758521-71.834669-150.076791-7.582153z m-111.560878 140.074044c-8.2051-0.444962-14.64815-4.80559-14.381172-9.735769s7.119392-8.543271 15.34229-8.098309 14.64815 4.80559 14.381173 9.717971-7.137191 8.561069-15.342291 8.116107z" /></svg>