<?xml version="1.0" standalone="no"?><!DOCTYPE svg PUBLIC "-//W3C//DTD SVG 1.1//EN" "http://www.w3.org/Graphics/SVG/1.1/DTD/svg11.dtd"><svg class="icon" width="200px" height="200.00px" viewBox="0 0 1024 1024" version="1.1" xmlns="http://www.w3.org/2000/svg"><path fill="#e6e6e6" d="M512 1023.999078a473.804374 473.804374 0 0 1-88.47352-939.314354l1.843198 10.239991a463.564383 463.564383 0 1 0 194.559825 4.505596l2.355198-10.239991A473.804374 473.804374 0 0 1 512 1023.999078zM904.601247 541.695512l-2.150398-10.23999a79.769528 79.769528 0 1 0-43.519961-153.599862l-3.379197-9.215992a89.907119 89.907119 0 1 1 49.049556 173.055844zM118.579554 541.490713a89.907119 89.907119 0 1 1 52.326353-171.519846l-3.583997 9.420792a79.769528 79.769528 0 1 0-46.489558 152.166263zM504.012807 1023.999078C222.310661 1023.999078 92.160378 770.252107 91.341179 767.999309a243.711781 243.711781 0 0 1 92.159917-299.72453c-6.758394-12.595189-24.985578-50.380755-21.708781-86.527923 10.239991-109.670301 80.793527-180.428638 180.838237-180.428637A180.633437 180.633437 0 0 1 512 318.258914 180.940637 180.940637 0 1 1 840.498904 467.967579c20.479982 14.335987 112.639899 84.787124 111.5135 204.799816a247.090978 247.090978 0 0 1-18.943983 94.207915C930.815623 772.095305 827.391716 1018.469483 512 1023.999078zM342.630552 211.04621c-94.412715 0-161.484655 67.17434-170.803046 171.212646-3.583997 39.935964 22.52798 84.275124 22.73278 84.787124l2.559997 4.300796-4.198396 2.662397a233.77899 233.77899 0 0 0-92.159917 289.48454C101.683569 765.644111 228.761855 1013.759088 504.012807 1013.759088H512c310.476521-5.324795 410.72603-248.319777 411.750029-250.777375A236.953387 236.953387 0 0 0 942.079613 672.460195c1.023999-128.614284-109.567901-197.836622-110.6943-198.553422l-4.505596-2.867197 2.457597-4.300796a170.803046 170.803046 0 1 0-312.422118-130.764682L512 352.767683 504.627207 327.679705a170.495847 170.495847 0 0 0-161.996655-116.633495zM512 730.930542a64.204742 64.204742 0 1 1 64.204742-64.204742A64.204742 64.204742 0 0 1 512 730.930542z m0-118.169493a54.067151 54.067151 0 1 0 54.067151 54.067151A54.067151 54.067151 0 0 0 512 612.761049zM513.843198 208.998212c-29.695973 0-68.300739-9.011192-87.551921-25.395177a93.286316 93.286316 0 0 1-28.159975-56.627149c0-61.439945 49.663955-75.468732 112.639899-93.695916A554.802701 554.802701 0 0 0 568.524749 1.433599l2.457598-1.433599 2.457598 1.331199a42.598362 42.598362 0 0 1 20.479981 44.13436 29.798373 29.798373 0 0 0 12.902389-13.311988l2.867197-10.239991 6.143995 8.806392a40.243164 40.243164 0 0 1 2.252798 44.95356 77.61913 77.61913 0 0 1-2.355198 77.92633 126.054287 126.054287 0 0 1-87.142322 54.78395 119.295893 119.295893 0 0 1-14.745587 0.6144z m57.241549-197.222223a529.305124 529.305124 0 0 1-57.651148 31.334372c-67.17434 19.455982-105.164705 32.87037-105.164706 83.967925a83.967924 83.967924 0 0 0 24.575978 48.844756c20.479982 16.998385 66.45754 25.702377 94.515115 22.22078a117.862294 117.862294 0 0 0 79.769528-49.971155 67.379139 67.379139 0 0 0 0.7168-70.451137l-2.662398-3.993596 3.788797-2.867198a25.395177 25.395177 0 0 0 2.867197-26.828776 74.239933 74.239933 0 0 1-24.063978 16.383986l-11.57119 5.017595 4.915196-11.673589a32.255971 32.255971 0 0 0-10.035191-41.983963zM388.198511 523.980328a64.204742 64.204742 0 1 1 64.204743-64.204742 64.204742 64.204742 0 0 1-64.204743 64.204742z m0-118.169493a54.067151 54.067151 0 1 0 54.067152 54.067151 54.067151 54.067151 0 0 0-54.067152-54.067151zM635.801489 523.980328a64.204742 64.204742 0 1 1 64.204742-64.204742 64.204742 64.204742 0 0 1-64.204742 64.204742z m0-118.169493a54.067151 54.067151 0 1 0 54.067151 54.067151 54.067151 54.067151 0 0 0-54.067151-54.067151z" /></svg>